<svg xmlns="http://www.w3.org/2000/svg" viewBox="0 0 120 120" role="img" aria-label="Puglit app icon">
  <defs>
    <linearGradient id="g" x1="0" y1="0" x2="1" y2="1">
      <stop offset="0" stop-color="#9F67FF"/><stop offset="1" stop-color="#5B21B6"/>
    </linearGradient>
  </defs>
  <rect width="120" height="120" rx="28" fill="url(#g)"/>
  <g transform="translate(8,8) scale(0.87)" fill="#FFFFFF">
    <rect x="22" y="18" width="20" height="20" rx="5"/>
    <rect x="22" y="41" width="20" height="20" rx="5"/>
    <rect x="22" y="64" width="20" height="20" rx="5"/>
    <rect x="22" y="87" width="20" height="20" rx="5"/>
    <rect x="45" y="18" width="20" height="20" rx="5"/>
    <rect x="68" y="18" width="20" height="20" rx="5"/>
    <rect x="68" y="41" width="20" height="20" rx="5"/>
    <rect x="16" y="13" width="16" height="16" rx="4" transform="rotate(-20 24 21)"/>
    <rect x="78" y="13" width="16" height="16" rx="4" transform="rotate(20 86 21)"/>
  </g>
  <path d="M55 41 L64 50 L55 59 L46 50 Z" fill="#E9D8FF" transform="translate(8,8) scale(0.87)"/>
</svg>
